<?xml version="1.0" encoding="UTF-8" standalone="no"?>
<svg width="1000px" height="1000px" viewBox="0 0 1000 1000" version="1.1" xmlns="http://www.w3.org/2000/svg" xmlns:xlink="http://www.w3.org/1999/xlink" xmlns:sketch="http://www.bohemiancoding.com/sketch/ns">
    <!-- Generator: Sketch 3.3 (11970) - http://www.bohemiancoding.com/sketch -->
    <title>facebook-icon-white</title>
    <desc>Created with Sketch.</desc>
    <defs></defs>
    <g id="Page-1" stroke="none" stroke-width="1" fill="none" fill-rule="evenodd" sketch:type="MSPage">
        <g id="facebook-icon-white" sketch:type="MSLayerGroup" fill="#FFFFFF">
            <path d="M690.575777,999.499992 L945.547028,999.499992 C975.436969,999.499992 999.499989,975.436971 999.499989,945.547031 L999.499989,54.4529635 C999.499989,24.5630231 975.436969,0.500002427 945.547028,0.500002427 L54.4529611,0.500002427 L54.4529611,0.500002427 C24.5630207,0.500002427 0.5,24.5630231 0.5,54.4529635 L0.5,945.547031 C0.5,975.436971 24.5630207,999.499992 54.4529611,999.499992 L533.938148,999.499992 L533.938148,612.256965 L403.40679,612.256965 L403.40679,461.710799 L533.938148,461.710799 L533.938148,346.843204 C533.938148,226.430063 608.589257,151.58803 726.17347,151.58803 C796.957197,151.58803 844.602778,157.137631 844.602778,157.137631 L844.602778,292.890243 L764.854332,292.890243 C714.317829,292.890243 690.575777,310.664942 690.575777,364.247385 L690.575777,461.710799 L839.381524,461.710799 L820.236925,612.256965 L690.575777,612.256965 L690.575777,999.499992 Z" id="rect3000" sketch:type="MSShapeGroup"></path>
        </g>
    </g>
</svg>