<?xml version="1.0" encoding="UTF-8" standalone="no"?>
<svg width="154px" height="55px" viewBox="0 0 154 55" version="1.1" xmlns="http://www.w3.org/2000/svg" xmlns:xlink="http://www.w3.org/1999/xlink" xmlns:sketch="http://www.bohemiancoding.com/sketch/ns">
    <!-- Generator: Sketch 3.3 (11970) - http://www.bohemiancoding.com/sketch -->
    <title>google-play-icon</title>
    <desc>Created with Sketch.</desc>
    <defs>
        <linearGradient x1="60.0995428%" y1="91.9797518%" x2="33.5000643%" y2="-59.2461126%" id="linearGradient-1">
            <stop stop-color="#D7E69D" offset="0%"></stop>
            <stop stop-color="#94C4AA" offset="44.56%"></stop>
            <stop stop-color="#01A4B6" offset="100%"></stop>
        </linearGradient>
        <linearGradient x1="-31.9859674%" y1="-128.817576%" x2="80.472113%" y2="114.258524%" id="linearGradient-2">
            <stop stop-color="#ED277B" offset="0%"></stop>
            <stop stop-color="#EE2F7C" offset="1.92%"></stop>
            <stop stop-color="#F7BD81" offset="70.39%"></stop>
            <stop stop-color="#FEEB74" offset="100%"></stop>
        </linearGradient>
        <linearGradient x1="50.9068365%" y1="74.7180561%" x2="-0.00834458927%" y2="-29.4385434%" id="linearGradient-3">
            <stop stop-color="#89CFBD" offset="0%"></stop>
            <stop stop-color="#7DBEBB" offset="9.07%"></stop>
            <stop stop-color="#457CAC" offset="53.96%"></stop>
            <stop stop-color="#1C5AA2" offset="85.23%"></stop>
            <stop stop-color="#084D9F" offset="100%"></stop>
        </linearGradient>
        <linearGradient x1="119.297304%" y1="35.6801289%" x2="-22.9911019%" y2="61.1852491%" id="linearGradient-4">
            <stop stop-color="#F04A2B" offset="0%"></stop>
            <stop stop-color="#B54F6B" offset="47.04%"></stop>
            <stop stop-color="#8B5191" offset="83.53%"></stop>
            <stop stop-color="#7851A1" offset="100%"></stop>
        </linearGradient>
    </defs>
    <g id="Page-1" stroke="none" stroke-width="1" fill="none" fill-rule="evenodd" sketch:type="MSPage">
        <g id="google-play-icon" sketch:type="MSLayerGroup" transform="translate(2.000000, 2.000000)">
            <path d="M149.893397,44.0291086 C149.893397,48.5663802 146.549408,51.3867872 142.002408,51.3867872 L8.31794237,51.3867872 C3.76917882,51.3867872 0.0793132092,47.7075016 0.0793132092,43.1693375 L0.0793132092,8.46032775 C0.0793132092,3.92392214 3.76829681,0.245529102 8.31794237,0.245529102 L142.002408,0.245529102 C146.549408,0.245529102 149.893397,3.92392214 149.893397,8.46032775 L149.893397,44.0291086 L149.893397,44.0291086 Z" id="Shape" stroke="#FFFFFF" stroke-width="3.13630139" fill="#010101" sketch:type="MSShapeGroup"></path>
            <path d="M149.893397,44.0291086 C149.893397,48.5663802 146.549408,51.3867872 142.002408,51.3867872 L8.31794237,51.3867872 C3.76917882,51.3867872 0.0793132092,47.7075016 0.0793132092,43.1693375 L0.0793132092,8.46032775 C0.0793132092,3.92392214 3.76829681,0.245529102 8.31794237,0.245529102 L142.002408,0.245529102 C146.549408,0.245529102 149.893397,3.92392214 149.893397,8.46032775 L149.893397,44.0291086 L149.893397,44.0291086 Z" id="Shape" stroke="#FFFFFF" stroke-width="3.13630139" fill="#010101" sketch:type="MSShapeGroup"></path>
            <g id="Group" transform="translate(34.898355, 21.272665)" fill="#FFFFFF" sketch:type="MSShapeGroup">
                <g id="Shape">
                    <path d="M67.562877,15.6814873 L66.4363567,16.7389098 C66.1776345,16.8798386 65.9188848,17.047383 65.6601626,17.1634803 C64.8794917,17.5171534 64.0854972,17.6057683 63.3804216,17.6057683 C62.6273456,17.6057683 61.4510343,17.5570246 60.2498142,16.6910596 C58.5791491,15.5192983 57.8509553,13.5054833 57.8509553,11.7487202 C57.8509553,8.1128494 60.820631,6.33125483 63.2408449,6.33125483 C64.0872888,6.33125483 64.9559556,6.54310753 65.6628219,6.98807318 C66.8382379,7.76185397 67.1423277,8.76964028 67.3112642,9.30854957 L61.7817979,11.5359749 L59.9697378,11.6760377 C60.5565642,14.6550901 62.5802148,16.3879144 64.8145873,16.3879144 C65.9313396,16.3879144 66.7600108,16.026288 67.5201954,15.6513537 C67.5193,15.6522463 67.672227,15.5733699 67.562877,15.6814873 L67.562877,15.6814873 Z M64.2268655,9.75351523 C64.6758784,9.59043366 64.9097184,9.44950491 64.9097184,9.12331341 C64.9097184,8.18642357 63.8472072,7.10684734 62.5793186,7.10684734 C61.6395067,7.10684734 59.8754736,7.83542814 59.8754736,10.3695424 C59.8754736,10.7630867 59.9226053,11.1849795 59.9466188,11.6068988 L64.2268646,9.75351523 L64.2268655,9.75351523 Z"></path>
                    <path d="M56.0024535,15.4989022 C56.0024535,16.4100681 56.1660437,16.5518885 56.9387107,16.624571 C57.3414872,16.6715561 57.7433684,16.6919513 58.1425626,16.740695 L57.2721328,17.2556654 L53.1288042,17.2556654 C53.6720528,16.5536746 53.7645254,16.4836432 53.7645254,16.0165238 L53.7645254,15.4909232 L53.7556253,1.55199781 L51.9249247,1.55199781 L53.685403,0.705534533 L57.0480598,0.705534533 C56.319866,1.12656135 56.1011393,1.38182801 56.0069027,2.20170135 L56.0024526,15.4989022 L56.0024535,15.4989022 Z"></path>
                    <path d="M49.5758577,7.48178249 C50.1146838,7.92496302 51.2420727,8.86361051 51.2420727,10.6443125 C51.2420727,12.3798145 50.2605022,13.1987953 49.2700039,13.9743612 C48.9659141,14.2792641 48.6111645,14.6107844 48.6111645,15.1231038 C48.6111645,15.6407244 48.9659141,15.9208234 49.2228722,16.1326486 L50.0737662,16.7850307 C51.1042601,17.6536468 52.0476258,18.452259 52.0476258,20.0698795 C52.0476258,22.275152 49.9075167,24.4981411 45.8610833,24.4981411 C42.4521902,24.4981411 40.8046433,22.8823066 40.8046433,21.1476972 C40.8046433,20.3020999 41.2260879,19.1063997 42.6166758,18.2865264 C44.0757228,17.3983802 46.0504786,17.2787126 47.1094351,17.2104663 C46.7786724,16.7850307 46.4016725,16.3391716 46.4016725,15.6132419 C46.4016725,15.2152614 46.5226087,14.9777388 46.6373041,14.6985333 C46.3803459,14.7233381 46.1215962,14.7499272 45.8850968,14.7499272 C43.3902105,14.7499272 41.9782952,12.8921339 41.9782952,11.0670979 C41.9782952,9.98752164 42.4735168,8.79271403 43.4853425,7.92496302 C44.8261403,6.82409905 46.4256869,6.63353408 47.6935754,6.63353408 L52.5402156,6.63353408 L51.0358001,7.48178249 L49.5758577,7.48178249 L49.5758577,7.48178249 Z M47.9087474,17.891196 C47.7157982,17.8672572 47.5993388,17.8672572 47.3681573,17.8672572 C47.1556714,17.8672572 45.8850968,17.9142423 44.9008392,18.243084 C44.3815766,18.4336481 42.8762933,18.9929526 42.8762933,20.6584232 C42.8762933,22.3203502 44.5007221,23.5204866 47.0134077,23.5204866 C49.271767,23.5204866 50.471224,22.4408829 50.471224,20.9890235 C50.4694333,19.7906722 49.6941079,19.1586861 47.9087474,17.891196 L47.9087474,17.891196 Z M48.5844917,13.4354519 C49.1295318,12.8938924 49.1757681,12.1475667 49.1757681,11.7221311 C49.1757681,10.0371579 48.1674971,7.40996598 46.2123056,7.40996598 C45.6023611,7.40996598 44.941731,7.71489634 44.5656274,8.18642446 C44.169987,8.67569753 44.0508424,9.30944214 44.0508424,9.91749025 C44.0508424,11.4872321 44.9684039,14.0922428 46.9885007,14.0922428 C47.5788809,14.0922428 48.212839,13.80595 48.5844925,13.4354519 L48.5844917,13.4354519 Z"></path>
                    <path d="M34.9942044,17.5597032 C31.2554431,17.5597032 29.2557793,14.6577421 29.2557793,12.0305768 C29.2557793,8.96023184 31.770229,6.33217398 35.3462945,6.33217398 C38.8032146,6.33217398 40.9691288,9.03023575 40.9691288,11.8639506 C40.9691288,14.6302853 38.8289921,17.5597023 34.9942044,17.5597023 L34.9942044,17.5597032 Z M37.9354165,15.6620122 C38.5044702,14.9121436 38.6413875,13.9761464 38.6413875,13.0623028 C38.6413875,10.9979865 37.654444,7.05986311 34.7372453,7.05986311 C33.9619199,7.05986311 33.1812756,7.36211489 32.6184627,7.8558242 C31.6982143,8.67572412 31.5354918,9.70566503 31.5354918,10.7178876 C31.5354918,13.0339552 32.6842349,16.8550612 35.5356614,16.8550612 C36.4550412,16.8550338 37.3930624,16.4118532 37.9354156,15.6620122 L37.9354165,15.6620122 Z"></path>
                    <path d="M22.4770925,17.5597032 C18.7374359,17.5597032 16.7413535,14.6577421 16.7413535,12.0305768 C16.7413535,8.96023184 19.2575672,6.33217398 22.831842,6.33217398 C26.2878943,6.33217398 28.4502263,9.03023575 28.4502263,11.8639506 C28.4502263,14.6302853 26.3136709,17.5597023 22.4770925,17.5597023 L22.4770925,17.5597032 Z M25.4192,15.6620122 C25.9829082,14.9121436 26.1242756,13.9761464 26.1242756,13.0623028 C26.1242756,10.9979865 25.1346727,7.05986311 22.2201334,7.05986311 C21.4421486,7.05986311 20.6686138,7.36211489 20.1049056,7.8558242 C19.1837618,8.67572412 19.0219347,9.70566503 19.0219347,10.7178876 C19.0219347,13.0339552 20.17426,16.8550612 23.0203402,16.8550612 C23.9396933,16.8550338 24.8768459,16.4118532 25.4191991,15.6620122 L25.4192,15.6620122 Z"></path>
                    <path d="M15.2467335,16.7460238 L12.0930079,17.4657321 C10.8162192,17.6678463 9.66924014,17.84421 8.45469733,17.84421 C2.37308226,17.84421 0.0551364523,13.3813786 0.0551364523,9.88824831 C0.0551364523,5.6230683 3.33867081,1.66812086 8.9615051,1.66812086 C10.1502437,1.66812086 11.2954596,1.84186004 12.3384074,2.1246101 C13.9903769,2.58818579 14.7639392,3.15898635 15.2467335,3.49315688 L13.4142413,5.22863143 L12.6415743,5.39882782 L13.1919599,4.52488291 C12.4468612,3.79895321 11.0758367,2.45788806 8.47425987,2.45788806 C4.99511701,2.45788806 2.37128979,5.09303237 2.37128979,8.94337946 C2.37128979,13.0756106 5.36853372,16.9640704 10.1724923,16.9640704 C11.585303,16.9640704 12.3117061,16.6813212 12.970573,16.4180746 L12.970573,12.8743889 L9.64167013,13.0516718 L11.4065985,12.1076955 L16.0780623,12.1076955 L15.5054548,12.6563424 C15.3516325,12.7866401 15.3320691,12.8300815 15.2885188,13.0073378 C15.2654007,13.2085595 15.2440465,13.8431975 15.2440465,14.067438 L15.2440465,16.7460238 L15.2467326,16.7460238 L15.2467335,16.7460238 Z"></path>
                </g>
                <g transform="translate(72.908293, 1.772722)" id="Shape">
                    <path d="M1.4341657,14.0089302 L1.4341657,19.9812372 L0.244531749,19.9812372 L0.244531749,4.78455922 L1.4341657,4.78455922 L1.4341657,6.51386648 C2.20859582,5.39615012 3.62496123,4.50978907 5.26895344,4.50978907 C8.21819794,4.50978907 10.2071709,6.74075806 10.2071709,10.2711359 C10.2071709,13.77936 8.21996108,16.0564216 5.26895344,16.0564216 C3.71743384,16.0582067 2.32684596,15.2604871 1.4341657,14.0089293 L1.4341657,14.0089302 Z M8.92948769,10.2729219 C8.92948769,7.61118766 7.53800446,5.58141376 5.06889575,5.58141376 C3.53604423,5.58141376 2.07165181,6.78155017 1.43416659,7.82834257 L1.43416659,12.6926982 C2.07165181,13.7412483 3.53604423,14.9865847 5.06889575,14.9865847 C7.53800446,14.9865847 8.92948769,12.9390924 8.92948769,10.2729228 L8.92948769,10.2729219 Z"></path>
                    <path d="M11.8315996,15.7851951 L11.8315996,0.58943719 L13.0230243,0.58943719 L13.0230243,15.7851951 L11.8315996,15.7851951 L11.8315996,15.7851951 Z"></path>
                    <path d="M26.3705714,18.9982539 C26.6239757,19.1117001 27.0578743,19.1817315 27.3335015,19.1817315 C28.0599046,19.1817315 28.568504,18.8839151 29.0219393,17.836231 L29.8915014,15.8764876 L25.2049243,4.78455834 L26.5315031,4.78455834 L30.5521315,14.3971448 L34.5336329,4.78455834 L35.8797761,4.78455834 L30.1627051,18.2031854 C29.5705333,19.5867994 28.6369631,20.2515702 27.3548289,20.2515702 C26.9698527,20.2515702 26.4639394,20.1824314 26.1660628,20.0920314 L26.3705714,18.9982539 L26.3705714,18.9982539 Z"></path>
                    <path d="M22.8949824,15.7515187 C22.8149646,15.3686045 22.7562735,15.033568 22.7127232,14.752604 C22.6762548,14.4742636 22.6566914,14.1853196 22.6566914,13.8945905 C22.248597,14.4920076 21.6706432,14.988368 20.9335768,15.3801272 C20.1947188,15.7728064 19.4931979,15.9669142 18.5293725,15.9669142 C17.3708339,15.9669142 16.4728358,15.684165 15.8291098,15.1062505 C15.1889385,14.5301211 14.8670751,13.7492264 14.8670751,12.7618353 C14.8670751,11.7744167 15.3338607,10.9740468 16.2629817,10.3642136 C17.1930257,9.74818643 18.3942183,9.44417611 19.8817289,9.44417611 L22.6566914,9.44417611 L22.6566914,8.07562933 C22.6566914,7.28678218 22.3864097,6.66986159 21.8493743,6.21959461 C21.3105482,5.7702193 20.5530222,5.54419369 19.571424,5.54419369 C18.6734259,5.54419369 17.9460999,5.75071759 17.3930825,6.15489202 C16.8444885,6.56793893 16.5670707,7.07847315 16.5670707,7.69450117 L15.3489731,7.69450117 L15.325855,7.63599248 C15.2814094,6.80459645 15.6619364,6.07601564 16.4737303,5.44757236 C17.278388,4.81737054 18.3382132,4.50270262 19.6398832,4.50270262 C20.9344713,4.50270262 21.9853963,4.81471943 22.7767314,5.43429024 C23.5671711,6.04853224 23.9628106,6.93843696 23.9628106,8.10046073 L23.9628106,13.5267445 C23.9628106,13.91588 23.9814787,14.2925728 24.030401,14.6595272 C24.0819552,15.027375 24.1602098,15.3934368 24.2686911,15.7488685 L22.8949806,15.7515196 L22.8949824,15.7515187 Z M18.6734268,14.8882039 C19.6843563,14.8882039 20.4098916,14.66307 21.1531988,14.2172383 C21.8893974,13.7749238 22.3926238,13.1987944 22.6549274,12.4994538 L22.6549274,10.3863664 L19.8666422,10.3863664 C18.801444,10.3863664 17.9212186,10.6221579 17.2259385,11.0954712 C16.5315261,11.5678928 16.1776452,12.1404784 16.1776452,12.8061418 C16.1776452,13.4336925 16.4017173,13.9335957 16.8444894,14.3138322 C17.2908162,14.6976389 17.8989967,14.888203 18.6734268,14.888203 L18.6734268,14.8882039 Z"></path>
                </g>
            </g>
            <g id="Group" transform="translate(34.898355, 7.090888)" fill="#FFFFFF" sketch:type="MSShapeGroup">
                <path d="M0.104926593,4.07815872 C0.104926593,1.74348105 1.84584149,0.241092865 4.00996414,0.241092865 C5.46013855,0.241092865 6.40882304,0.930695058 6.99920417,1.7753998 L5.94024677,2.3869907 C5.53836559,1.83212247 4.83508063,1.39778695 4.00996414,1.39778695 C2.53756693,1.39778695 1.44396031,2.5101745 1.44396031,4.07726527 C1.44396031,5.62396087 2.53756693,6.75763615 4.00996414,6.75763615 C4.76838555,6.75763615 5.4370204,6.41283461 5.7722065,6.0919728 L5.7722065,4.94501628 L3.54138787,4.94501628 L3.54138787,3.79984489 L7.06589926,3.79984489 L7.06589926,6.56972318 C6.34126017,7.3816166 5.29207071,7.92674726 4.00906879,7.92674726 C1.84581393,7.92671979 0.104926593,6.40307046 0.104926593,4.07815872 L0.104926593,4.07815872 Z" id="Shape"></path>
                <path d="M8.68142878,7.78224914 L8.68142878,0.363411576 L13.7796826,0.363411576 L13.7796826,1.50858296 L9.98668107,1.50858296 L9.98668107,3.42134125 L13.7014289,3.42134125 L13.7014289,4.56654011 L9.98668107,4.56654011 L9.98668107,6.63529262 L13.7796826,6.63529262 L13.7796826,7.78135657 L8.68142878,7.78224914 L8.68142878,7.78224914 Z" id="Shape"></path>
                <path d="M17.3912936,7.78224914 L17.3912936,1.50947553 L15.1382522,1.50947553 L15.1382522,0.364304142 L20.9495864,0.364304142 L20.9495864,1.50947553 L18.696545,1.50947553 L18.696545,7.78224914 L17.3912927,7.78224914 L17.3912936,7.78224914 Z" id="Shape"></path>
                <path d="M25.4858951,7.78224914 L25.4858951,0.363411576 L26.7911198,0.363411576 L26.7911198,7.78224914 L25.4858951,7.78224914 L25.4858951,7.78224914 Z" id="Shape"></path>
                <path d="M30.4249812,7.78224914 L30.4249812,1.50947553 L28.1719397,1.50947553 L28.1719397,0.364304142 L33.983274,0.364304142 L33.983274,1.50947553 L31.7302326,1.50947553 L31.7302326,7.78224914 L30.4249803,7.78224914 L30.4249812,7.78224914 Z" id="Shape"></path>
                <path d="M38.1968248,4.07815872 C38.1968248,1.8649072 39.7696985,0.241092865 42.0013858,0.241092865 C44.2206449,0.241092865 45.8041828,1.8649072 45.8041828,4.07815872 C45.8041828,6.29141024 44.2206449,7.91522457 42.0013858,7.91522457 C39.7696994,7.91519709 38.1968248,6.29138365 38.1968248,4.07815872 L38.1968248,4.07815872 Z M44.4669398,4.07815872 C44.4669398,2.54474435 43.4960058,1.3986804 42.0031765,1.3986804 C40.4969978,1.3986804 39.5376225,2.54385178 39.5376225,4.07815872 C39.5376225,5.60270061 40.4969978,6.75850301 42.0031765,6.75850301 C43.4960325,6.75850301 44.4669398,5.60270061 44.4669398,4.07815872 L44.4669398,4.07815872 Z" id="Shape"></path>
                <path d="M52.5162012,7.78224914 L48.6342818,2.47739155 L48.6342818,7.78224914 L47.3299258,7.78224914 L47.3299258,0.363411576 L48.6689595,0.363411576 L52.4708611,5.50075136 L52.4708611,0.363411576 L53.7778765,0.363411576 L53.7778765,7.78224914 L52.5162021,7.78224914 L52.5162012,7.78224914 Z" id="Shape"></path>
            </g>
            <g id="Group" transform="translate(6.446338, 20.386304)" sketch:type="MSShapeGroup">
                <path d="M12.9723415,12.3133277 L16.7893574,8.50906609 L16.7884683,8.50906609 L12.9723415,12.3133277 L0.792210847,0.170181322 L0.791321721,0.170181322 L12.9723415,12.3151004 L0.77176096,24.4768604 L12.9723415,12.3151004 L16.8062508,16.1362029 L16.808029,16.1362029 L12.9723415,12.3133277 Z" id="Shape"></path>
                <path d="M16.7884718,8.50907141 L1.91695998,0.357216799 C1.49639738,0.127646628 1.10607483,0.0744676237 0.792217071,0.171088955 L12.9732342,12.3133268 L16.7884718,8.50907229 L16.7884718,8.50907141 Z" id="Shape" fill="url(#linearGradient-1)"></path>
                <path d="M16.8080352,16.1361914 L21.8840529,13.3521393 C22.9136647,12.784855 22.9136647,11.8639249 21.8840529,11.3011043 L16.7893672,8.5090457 L12.9732342,12.3133277 L16.8080361,16.1361923 L16.8080352,16.1361914 Z" id="Shape" fill="url(#linearGradient-2)"></path>
                <path d="M0.791320832,0.170168913 C0.33964862,0.311097661 0.0462363058,0.768478576 0.0462363058,1.45894674 L0.0488956803,23.1942951 C0.0488956803,23.8767833 0.333422074,24.3261587 0.771758292,24.475959 L12.9732342,12.3124334 L0.791321721,0.170168913 L0.791320832,0.170168913 Z" id="Shape" fill="url(#linearGradient-3)"></path>
                <path d="M0.771757403,24.4768516 C1.08918411,24.584103 1.48661522,24.5326817 1.91695998,24.2987027 L16.8071399,16.1361905 L12.9732342,12.314191 L0.771758292,24.4768507 L0.771757403,24.4768516 Z" id="Shape" fill="url(#linearGradient-4)"></path>
            </g>
        </g>
    </g>
</svg>