<?xml version="1.0" encoding="UTF-8" standalone="no"?>
<svg width="108px" height="89px" viewBox="0 0 108 89" version="1.1" xmlns="http://www.w3.org/2000/svg" xmlns:xlink="http://www.w3.org/1999/xlink" xmlns:sketch="http://www.bohemiancoding.com/sketch/ns">
    <!-- Generator: Sketch 3.3 (11970) - http://www.bohemiancoding.com/sketch -->
    <title>Shape</title>
    <desc>Created with Sketch.</desc>
    <defs></defs>
    <g id="Page-1" stroke="none" stroke-width="1" fill="none" fill-rule="evenodd" sketch:type="MSPage">
        <path d="M108.042,10.665 C104.065,12.429 99.792,13.621 95.309,14.155 C99.885,11.412 103.401,7.068 105.057,1.89 C100.773,4.43 96.027,6.276 90.977,7.27 C86.933,2.96 81.172,0.27 74.795,0.27 C62.55,0.27 52.625,10.196 52.625,22.44 C52.625,24.177 52.82,25.87 53.197,27.49 C34.772,26.567 18.437,17.74 7.501,4.327 C5.592,7.602 4.5,11.41 4.5,15.473 C4.5,23.163 8.414,29.951 14.363,33.927 C10.729,33.812 7.31,32.814 4.321,31.154 L4.321,31.434 C4.321,42.174 11.963,51.134 22.105,53.171 C20.245,53.681 18.285,53.951 16.265,53.951 C14.835,53.951 13.445,53.811 12.093,53.553 C14.913,62.361 23.103,68.771 32.803,68.95 C25.215,74.894 15.656,78.438 5.269,78.438 C3.479,78.438 1.714,78.333 -0.021,78.128 C9.792,84.418 21.445,88.088 33.965,88.088 C74.745,88.088 97.045,54.308 97.045,25.008 C97.045,24.048 97.023,23.092 96.981,22.141 C101.313,19.017 105.071,15.111 108.043,10.666 L108.042,10.665 Z" id="Shape" fill="#FFFFFF" sketch:type="MSShapeGroup"></path>
    </g>
</svg>