<svg xmlns="http://www.w3.org/2000/svg" width="113.386" height="113.386" viewBox="0 0 113.386 113.386"><path fill="#5FA9DD" d="M111.042 22.665c-3.977 1.764-8.25 2.956-12.733 3.49 4.576-2.743 8.092-7.087 9.748-12.265-4.284 2.54-9.03 4.386-14.08 5.38-4.044-4.31-9.805-7-16.182-7-12.245 0-22.17 9.926-22.17 22.17 0 1.737.195 3.43.572 5.05-18.425-.923-34.76-9.75-45.696-23.163C8.592 19.602 7.5 23.41 7.5 27.473c0 7.69 3.914 14.478 9.863 18.454-3.634-.115-7.053-1.113-10.042-2.773v.28c0 10.74 7.642 19.7 17.784 21.737-1.86.51-3.82.78-5.84.78-1.43 0-2.82-.14-4.172-.398 2.82 8.808 11.01 15.218 20.71 15.397-7.588 5.944-17.147 9.488-27.534 9.488-1.79 0-3.555-.105-5.29-.31 9.813 6.29 21.466 9.96 33.986 9.96 40.78 0 63.08-33.78 63.08-63.08 0-.96-.022-1.916-.064-2.867 4.332-3.124 8.09-7.03 11.062-11.475z"/></svg>